<svg width="89" height="70" fill="none" xmlns="http://www.w3.org/2000/svg"><path d="M20.28 69.16c-3.987 0-7.453-1.04-10.4-3.12-2.947-2.253-5.2-5.287-6.76-9.1-1.56-3.813-2.34-8.147-2.34-13 0-5.893.953-11.527 2.86-16.9C5.72 21.493 8.84 16.38 13 11.7 17.16 7.02 22.533 3.12 29.12 0l10.92 10.14c-4.68 1.56-8.84 3.727-12.48 6.5-3.467 2.773-6.327 5.893-8.58 9.36-2.08 3.467-3.553 7.02-4.42 10.66l1.04.52c.693-.52 1.56-.953 2.6-1.3 1.04-.347 2.6-.52 4.68-.52 2.08 0 4.247.607 6.5 1.82s4.073 3.033 5.46 5.46c1.56 2.253 2.34 5.287 2.34 9.1 0 3.12-.78 5.98-2.34 8.58-1.387 2.6-3.38 4.767-5.98 6.5-2.6 1.56-5.46 2.34-8.58 2.34zm48.88 0c-3.987 0-7.453-1.04-10.4-3.12-2.947-2.253-5.2-5.287-6.76-9.1-1.56-3.813-2.34-8.147-2.34-13 0-5.893.953-11.527 2.86-16.9 2.08-5.547 5.2-10.66 9.36-15.34C66.04 7.02 71.413 3.12 78 0l10.92 10.14c-4.68 1.56-8.84 3.727-12.48 6.5-3.467 2.773-6.327 5.893-8.58 9.36-2.08 3.467-3.553 7.02-4.42 10.66l1.04.52c.693-.52 1.56-.953 2.6-1.3 1.04-.347 2.6-.52 4.68-.52 2.08 0 4.247.607 6.5 1.82s4.073 3.033 5.46 5.46c1.56 2.253 2.34 5.287 2.34 9.1 0 3.12-.78 5.98-2.34 8.58-1.387 2.6-3.38 4.767-5.98 6.5-2.6 1.56-5.46 2.34-8.58 2.34z" fill="#1AA090"/></svg>